<svg version="1" xmlns="http://www.w3.org/2000/svg" width="933.333" height="933.333" viewBox="0 0 700.000000 700.000000"><path d="M200.8 45.1c-29.8 3.4-50 25.8-57.8 63.9-2.8 13.9-3.5 21.9-3.4 41.5 0 18 .5 25.7 2.9 41.9 2 13.9 2.4 15.6 5.2 28.1 1.3 6 2.6 11.7 2.8 12.7.3 1.3-2.3 2.5-12.8 5.8C62 263.2 11.5 299.6 1.6 337.2-.3 344.4.3 357.8 2.9 366 14.3 401.9 67 439.9 137 462.5c6.3 2.1 11.9 4.1 12.3 4.5.4.4-.3 5.6-1.7 11.6s-2.8 12.5-3.1 14.4c-.3 1.9-1 6.1-1.6 9.3-.6 3.3-1.2 7.3-1.4 9-.2 1.8-.6 5.7-.9 8.7-.4 3-.8 7.7-1.1 10.5-.6 6.5-.7 36.3-.1 39.5.3 1.4.7 5 1 8 3.9 35.4 19.7 62.5 42.5 72.6 13.5 6 35.3 6.8 53.6 2 35.5-9.4 72.9-32.2 110.4-67.3l4.5-4.1 6 5.6c3.3 3.1 7.1 6.8 8.5 8.1 1.4 1.3 8.1 6.9 15 12.4 49.3 39.4 98.1 56.5 130.3 45.6 23.7-7.9 39.7-30.2 46.8-64.9 2.7-13.3 3.4-21.4 3.4-41 0-21.3-.9-33-4.1-51-.8-4.7-1.7-9.9-2-11.5-.2-1.7-1.3-6.6-2.3-11-1-4.4-1.8-8.1-1.7-8.2.1 0 5.7-1.9 12.4-4.2 25.8-8.5 55.1-21.3 70.8-31 17.7-10.9 27.4-18.1 37.7-27.9 26-24.7 33.8-50.8 22.5-75.2-8.1-17.6-27.5-36.8-53.7-53-19-11.7-54-27.1-80-35.1-5.2-1.7-9.9-3.4-10.3-3.8-.5-.5-.2-4.1.8-8.3 1-4 1.9-8.2 2.1-9.3.1-1.1.5-3.1.8-4.5.3-1.3.8-4 1.1-6 .3-2 .8-4.7 1-6 3.2-15.9 4.8-53.7 3.2-72-2.7-29.1-11.9-52.9-26-67.4-11.6-11.8-21.9-16.3-40.2-17.3-36.8-1.9-84 21.6-133.4 66.6-4.6 4.2-8.7 7.7-9.2 7.9-.5.2-4.9-3.2-9.7-7.6-51.5-46.2-103-70.4-140.4-66.1zM501 74.8c8.9 2.9 14.4 8.3 20 19.7 4.8 9.8 6.8 17.3 9.1 35 1.1 8.4.8 39.8-.5 48.5-.2 1.9-.7 6.2-1.1 9.5-.4 3.3-1.1 8.2-1.6 11-.5 2.7-1.2 6.6-1.5 8.5-.5 3-2.2 11.3-3.9 18.8-.4 1.6-1.1 2.2-2.3 1.8-.9-.3-3.3-.8-5.2-1.1-1.9-.3-6.2-1.2-9.5-2-12.7-2.9-42-7.5-57.8-9.1-7.8-.8-17.9-2.2-18.2-2.6-.1-.2-3.3-4.6-7.1-9.8-12.2-16.9-34.4-44.7-42.4-53.1-.8-.8-3-3.3-4.9-5.3l-3.4-3.8 3.4-3.1c1.9-1.7 5.7-5.1 8.4-7.6 2.8-2.6 6.8-6.1 9-7.8 13-10.5 17.4-13.9 21-16.2 2.2-1.4 4.6-3.2 5.3-3.9 2.7-2.4 24.9-15 33.7-18.9 20.9-9.4 37.8-12.3 49.5-8.5zm-278.5.4c2.2.6 5 1.2 6.2 1.4 12.9 2.5 39.2 15.9 59.9 30.5 13.5 9.5 40.4 31.8 40.4 33.5 0 .7-3.1 4.4-11.1 13.4-10.2 11.5-26.8 32.1-36.7 45.7-5.5 7.6-10.6 13.5-11.7 13.8-1.1.2-4.2.6-7 .9-18.3 1.8-19.1 1.9-30 3.6-3.3.5-7.8 1.1-9.9 1.5-2.1.3-4.8.7-6 1-1.2.2-3.7.7-5.6.9-3.6.5-17.5 3.1-22 4.2-8.4 1.8-9.9 1.7-10.4-.7-.3-1.3-1.3-5.6-2.1-9.4-.9-3.9-2.3-11.1-3.1-16-.8-5-1.7-10.1-1.9-11.5-.5-2.7-1.1-8.6-2.1-19.8-3.7-40.7 4.5-77.2 19.7-88.5 7-5.1 21.8-7.1 33.4-4.5zm138 98.3c3.3 3.8 6.7 7.6 7.5 8.5 2.1 2.1 22 27.8 22 28.3 0 .2-4.6.3-10.2.1-14.5-.4-47.5-.4-59.1 0-5.3.2-9.9.1-10.1-.3-.3-.4.8-2.1 2.2-3.8 1.5-1.7 6-7.3 10.1-12.5 6.8-8.6 13.8-16.8 23.5-27.6l3.9-4.3 2.1 2.3c1.2 1.3 4.8 5.4 8.1 9.3zm36 66.9c18 1.1 15.7-.4 26.7 16.9 16.4 25.9 29.3 47.8 40.1 68.7 3.3 6.3 7.5 14.2 9.2 17.5l3.2 5.9-8.2 16.1c-4.5 8.8-10.3 19.8-12.8 24.4-2.6 4.6-4.7 8.5-4.7 8.7 0 .2-11.7 20.1-15 25.4-1.7 2.8-9 14.5-10.3 16.4-.6 1.1-3.4 5.4-6 9.5-2.7 4.2-5.4 7.9-6 8.3-3.4 1.9-88.9 3.1-108.2 1.5-3.8-.3-9.2-.6-12-.6l-5-.1-10.2-15.8c-17.9-27.7-32.3-52.8-45.8-79.4l-6.9-13.7 7-13.8c19.5-38.6 53.7-95.3 57.4-95.1 2.4.2 27.4-1.3 27.7-1.6.6-.5 69.2.1 79.8.8zM249 245.6c0 .2-2.9 5-6.3 10.6-8.3 13.5-23 39.1-28.7 50-2.4 4.8-4.7 8.5-5 8.3-.4-.2-1.9-3.7-3.4-7.7s-3.2-8.2-3.7-9.3c-1.9-4.4-5.3-13.7-9.9-27.2-5.5-16-5.9-14.4 4.5-16.3 3.3-.5 7.1-1.2 8.5-1.5 6.3-1.3 25-4.5 29.5-5 2.8-.3 6.6-1 8.5-1.4 3.7-.8 6-1 6-.5zm210.5 1c2.8.3 5.9.8 7 1 1.1.2 4 .7 6.5 1 6.5.8 39.2 7.3 39.8 7.8.4.4-1.6 6.6-3.8 12.1-.5 1.1-1.8 5-3 8.7-1.1 3.6-4.9 13.7-8.4 22.3l-6.3 15.7-2-3.3c-1.1-1.9-5.6-9.9-10-17.9-4.4-8-12.6-22-18.2-31.2-5.5-9.3-10.1-17-10.1-17.4 0-.3.8-.3 1.8 0 .9.3 4 .8 6.7 1.2zm-294.8 34.9c6.8 19.5 12.3 33.9 20.8 53.6l6.5 15-7.4 17.2c-7.6 17.6-18.2 45.5-23.1 60.7-1.5 4.7-3.1 8.9-3.5 9.4-1 1-33.6-9.9-48-16.1-23.4-10.1-39.8-19.4-54.5-30.8-9.3-7.2-14.3-12.6-18.5-20-6.7-11.8-8.6-21.8-5.6-30.3 6.2-17.3 33.6-39.1 70.6-56 20.9-9.6 56.2-21.9 56.9-19.9.2.7 2.8 8.4 5.8 17.2zm390.9-13.6c42.4 13.7 80.3 34.1 100.1 53.8 19.3 19.3 19.3 35.6 0 56.1-12.9 13.6-38.6 29.8-67.2 42.3-11.2 4.8-45.5 17.3-45.5 16.5 0-.6-8-23.9-9-26.1-.5-1.1-3.8-9.5-7.4-18.7-3.6-9.1-8.2-20.1-10.2-24.5-2-4.3-4.6-10.1-5.9-12.9l-2.2-5 4.4-10c7.7-17 18-43.2 23.5-59.7 2.9-8.6 5.8-15.7 6.4-15.7.6 0 6.4 1.7 13 3.9zm-57.3 132.6c9.3 22.9 16.1 42.5 15.1 43.4-.5.5-4.9 1.6-9.9 2.6-4.9.9-9.9 1.9-11 2.1-9.2 1.8-21.6 3.8-31 4.9-2.7.3-6.2.8-7.7 1.1-1.6.3-2.8.3-2.8 0s3.5-6.2 7.8-13.3c11.6-18.9 21.1-35.5 30.2-53.1 1.2-2.4 2.4-4.2 2.5-4 .2.2 3.3 7.5 6.8 16.3zm-273.8 12.7c1.9 3.3 3.5 6.1 3.5 6.2 0 .2 4.9 8.4 10.9 18.2 6 9.9 10.9 18 10.8 18-.1.1-4.5-.5-9.7-1.2-5.2-.7-11.5-1.6-14-1.9-5.3-.7-38.4-6.7-38.8-7-.5-.5 9.8-30.4 14.8-43 8-20.1 6.4-19.3 13.2-6.4 3.2 6.2 7.4 13.9 9.3 17.1zm299.8 67c1 4 2 8.4 2.2 9.8.3 1.4.7 3.6 1 5 3.1 15.2 4.7 32.7 4.7 49.6 0 13.2-.7 23.3-2.8 37.9-1.9 14.2-8.5 27.5-18.1 36.8-10.9 10.4-32 9.9-58.3-1.6-13.8-6-40.2-21.9-47.7-28.6-1-.9-6.1-5-11.3-9.2-5.2-4.2-12.4-10.3-15.9-13.6l-6.4-5.9 7.4-8.5c4.1-4.6 10.6-12.2 14.4-16.9 3.8-4.7 7.1-8.7 7.5-9 1-.9 24.5-32.8 27.5-37.4.6-1 3.3-1.7 7.5-2.1 5.6-.5 19.3-2.1 25.5-3 1.1-.1 4.7-.6 8-1s6.9-.9 8-1.2c1.1-.2 3.8-.6 6-.9 2.2-.3 4.6-.7 5.3-1 .8-.2 3.5-.7 6-1 2.6-.3 9.2-1.6 14.7-2.9 5.5-1.2 10.7-2.3 11.6-2.4 1.1-.1 2 1.8 3.2 7.1zm-334-4.2c7.8 1.6 13.5 2.6 31.3 5.5 1.2.2 4.8.7 8 1 3.3.4 6.8.9 7.8 1.1 4 .7 25.3 2.9 31.2 3.2 2.7.2 4 1.5 10.5 10.4 10 13.8 28.4 36.8 40.8 50.8 5.5 6.3 10.1 11.7 10.1 12.1 0 1.6-19.4 18.7-31.7 28-23.9 17.9-59.2 35.5-75.7 37.7-15.1 2-29-1.2-36.1-8.3-9-9-15.1-25.4-17.2-46.5-1.3-13.3-.6-44.7 1.2-53.5.3-1.1.7-3.7 1-5.8 1.1-8.2 1.8-11.7 4.1-23.2 2.9-14.2 3-14.5 4.4-14.5.6 0 5.2.9 10.3 2zM352 489.9c15.1 0 30.1-.1 33.3-.3 3.1-.2 5.7-.1 5.7.2 0 .9-23.1 29.9-31.4 39.4l-8.5 9.8-10.4-11.8c-11.8-13.4-29.7-35.6-29.7-37 0-.5 3-.8 6.8-.6 3.7.2 19.1.3 34.2.3z"/><path d="M344.7 287.6c-.1.1-2.4.5-5 .8-12.2 1.7-24.4 8.1-34.2 18-23.9 24.1-23.9 63.2 0 87.2 19.5 19.6 47.6 24.4 72.1 12.3 24.5-12 38.3-38.7 34.1-66.2-3.9-25.1-25.8-47.3-50.8-51.3-4.3-.6-15.7-1.3-16.2-.8z"/></svg>